# xmcd
#
# Track frame offsets: 
#        150
#        13768
#        29443
#        44554
#        59302
#        74007
#        87543
#        101916
#        121671
#        138895
#        153676
#        167177
#        188291
#        206307
#        228738
#        247663
#        259102
#        272549
#
# Disc length: 3877 seconds
#
# Revision: 3
# Processed by: cddbd v1.5.2PL0 Copyright (c) Steve Scherf et al.
# Submitted via: ExactAudioCopyFreeDBPlugin 1.0
#
DISCID=fa0f2312
DTITLE=Various Artist - Standing in the Shadows of Motown (Deluxe Edi
DTITLE=tion)
DYEAR=2004
DGENRE=Soul
TTITLE0=Joan Osborne - (Love is Like a) Heat Wave
TTITLE1=Meshell Ndegeocello - You've Really Got a Hold on Me
TTITLE2=Bootsy Collins - Do You Love Me
TTITLE3=The Funk Brothers - Bernadette (instrumental)
TTITLE4=Gerald Levert - Reach Out I'll Be There
TTITLE5=Ben Harper - Ain't Too Proud to Beg
TTITLE6=Gerald Levert - Shotgun (ft Tom Scott)
TTITLE7=Joan Osborne - What Becomes of the Brokenhearted
TTITLE8=Ben Harper - I Heard it Through the Grapevine
TTITLE9=The Funk Brothers - You Keep Me Hanging On (instrumental)
TTITLE10=Bootsy Collins - Cool Jerk
TTITLE11=Meshell Ndegeocello - Cloud Nine
TTITLE12=Chaka Khan - What's Going On
TTITLE13=Chaka Khan and Montell Jordan - Band Introduction - Ain't No 
TTITLE13=Mountain High Enough
TTITLE14=Earl Van Dyke - The Flick
TTITLE15=John Lee Hooker - Boom Boom
TTITLE16=Jackie Wilson - (Your Love Keeps Lifting Me) Higher and Highe
TTITLE16=r
TTITLE17=Dennis Coffey and The Detroit Guitar Band - Scorpio
EXTD=
EXTT0=
EXTT1=
EXTT2=
EXTT3=
EXTT4=
EXTT5=
EXTT6=
EXTT7=
EXTT8=
EXTT9=
EXTT10=
EXTT11=
EXTT12=
EXTT13=
EXTT14=
EXTT15=
EXTT16=
EXTT17=
PLAYORDER=
